:SAMPLES-PER-SECOND 30
:FULLY-SPECIFIED
:DEGREES
657
root  -0.0378188 30.9897 -50.8431 54.7388 9.91681 91.8556
Spine  2.37606 -3.45261 -15.1109
Spine1  1.46086 -0.0626603 1.60615
Neck  3.97569e-016 0 -2.38542e-015
Head  33.6991 -6.80718 25.4109
R_Clavicle  0.398512 -18.6234 1.43628
R_UpperArm  22.032 -8.0313 20.0577
R_Forearm  56.5455 16.7119 -14.4785
R_Hand  -0.232679 2.30064 -8.06855
L_Clavicle  -0.507245 17.6311 -0.462792
L_UpperArm  -4.8746 7.01562 3.76177
L_Forearm  -47.1808 3.95848 4.56319
L_Hand  1.09615 13.0254 6.99159
L_Thigh  -3.17235 -10.4167 -16.9373
L_Calf  -0.284766 -1.84363 14.8717
L_Foot  9.31289 10.0431 22.3041
L_Toe0  0.505225 0.0255412 -6.13684
R_Thigh  3.0683 -7.75614 1.45128
R_Calf  -10.0145 -4.09055 -12.8929
R_Foot  2.15556 5.35728 -9.36949
R_Toe0  -3.97161 0.665108 -5.35218
658
root  -0.492924 31.1829 -50.3042 56.3405 9.10078 91.9831
Spine  0.996115 -4.67015 -15.4685
Spine1  0.469835 2.63364 2.1827
Neck  3.97569e-016 0 -2.38542e-015
Head  36.6192 -7.96971 24.0671
R_Clavicle  0.416903 -18.5077 1.98712
R_UpperArm  22.5826 -7.66977 22.1864
R_Forearm  52.294 19.9744 -17.6107
R_Hand  -0.166139 1.8135 -6.47141
L_Clavicle  -0.516032 18.0727 -0.144752
L_UpperArm  -6.15768 6.10014 5.44864
L_Forearm  -48.1004 4.33055 4.99806
L_Hand  1.01356 12.6617 6.62212
L_Thigh  -2.78875 -9.2819 -18.5739
L_Calf  1.27432 -2.27903 17.4951
L_Foot  9.48167 10.6328 22.0267
L_Toe0  0.505218 0.0262712 -6.13676
R_Thigh  2.56564 -8.96475 3.95742
R_Calf  -9.70405 -2.2131 -6.96384
R_Foot  1.80075 3.28007 -10.368
R_Toe0  -0.517104 0.135419 -1.20771
659
root  -0.968011 31.2934 -49.8024 57.477 8.20594 92.2921
Spine  -0.125007 -5.58203 -15.7189
Spine1  -0.350123 4.81751 2.37312
Neck  3.97569e-016 0 -2.38542e-015
Head  38.5824 -8.72064 23.7281
R_Clavicle  0.424043 -17.9482 2.18671
R_UpperArm  22.8195 -6.96592 24.3601
R_Forearm  51.8616 21.7206 -19.3625
R_Hand  -0.20097 1.08359 -5.63052
L_Clavicle  -0.519486 18.2297 -0.0740526
L_UpperArm  -8.47498 5.92641 7.26456
L_Forearm  -45.6684 4.95122 5.72416
L_Hand  0.815893 11.9286 5.58152
L_Thigh  -2.05757 -8.40975 -19.8713
L_Calf  1.8029 -2.90479 19.6977
L_Foot  9.48981 10.7353 21.9172
L_Toe0  0.505208 0.0271881 -6.13666
R_Thigh  1.62278 -10.1246 5.84487
R_Calf  -8.89751 0.444287 1.275
R_Foot  1.57473 2.71706 -8.99274
R_Toe0  0.680733 -0.222243 -2.79638
660
root  -1.4245 31.3798 -49.2954 58.1068 7.02958 92.9037
Spine  -0.805818 -5.88952 -16.1915
Spine1  -0.71236 6.22193 2.54864
Neck  3.97569e-016 0 -2.38542e-015
Head  39.3521 -9.19325 23.6466
R_Clavicle  0.426069 -17.7328 2.23385
R_UpperArm  23.7441 -6.0346 27.5925
R_Forearm  51.4378 23.523 -21.2365
R_Hand  -0.157662 1.37166 -5.58243
L_Clavicle  -0.513824 18.1576 0.100726
L_UpperArm  -10.2327 5.98188 8.14419
L_Forearm  -45.4971 6.25144 7.25186
L_Hand  0.780993 11.9902 5.34097
L_Thigh  -1.0535 -7.93502 -20.7489
L_Calf  1.33331 -3.64717 22.0082
L_Foot  9.31732 10.555 21.6368
L_Toe0  0.505197 0.0283029 -6.13655
R_Thigh  0.728567 -11.0644 7.47279
R_Calf  -6.29822 3.88649 12.0221
R_Foot  1.28313 1.21451 -9.11031
R_Toe0  0.959184 -0.443702 -10.1668
661
root  -1.81616 31.6011 -48.7944 58.5518 5.37412 93.3186
Spine  -1.32143 -5.09026 -16.8191
Spine1  -0.825025 7.1176 3.04543
Neck  3.97569e-016 0 -2.38542e-015
Head  39.8194 -9.41596 22.722
R_Clavicle  0.42928 -17.8804 2.31683
R_UpperArm  24.9895 -5.15889 31.049
R_Forearm  49.9364 24.6948 -22.4954
R_Hand  -0.0647076 2.55738 -6.3852
L_Clavicle  -0.504271 18.0218 0.406866
L_UpperArm  -11.0965 5.75 8.32828
L_Forearm  -47.4682 7.58676 8.83388
L_Hand  0.846952 12.3542 5.65846
L_Thigh  0.0615825 -7.19558 -21.6972
L_Calf  0.529021 -4.53626 25.806
L_Foot  8.93313 10.6608 20.3442
L_Toe0  0.505184 0.0296274 -6.13641
R_Thigh  0.736544 -11.5039 8.42949
R_Calf  -3.02025 7.87049 25.2584
R_Foot  1.08815 -0.866101 -11.2128
R_Toe0  -2.0213 -0.259607 -17.9924
